<svg width="64" height="64" viewBox="0 0 64 64" fill="none" xmlns="http://www.w3.org/2000/svg">
<rect width="64" height="64" rx="12" fill="white"/>
<ellipse cx="44" cy="27.1429" rx="12" ry="12.1429" fill="#FEB137"/>
<path fill-rule="evenodd" clip-rule="evenodd" d="M51.0254 36.9883C54.0391 34.7824 56 31.1943 56 27.1429C56 20.4365 50.6274 15 44 15C40.019 15 36.4909 16.9616 34.3079 19.9816C36.2827 18.5362 38.7097 17.6842 41.3333 17.6842C47.9607 17.6842 53.3333 23.1207 53.3333 29.8271C53.3333 32.5051 52.4766 34.9806 51.0254 36.9883Z" fill="#FEB137"/>
<path fill-rule="evenodd" clip-rule="evenodd" d="M38 27.1429C38 27.1429 38 27.1429 38 27.1429C38 21.7778 33.702 17.4286 28.4 17.4286C23.0981 17.4286 18.8 21.7778 18.8 27.1429C18.8 27.1806 18.8002 27.2183 18.8007 27.2559C15.3898 27.8629 12.8 30.8433 12.8 34.4286C12.8 34.5731 12.8043 34.7166 12.8126 34.859C10.0061 35.8717 8 38.5587 8 41.7143C8 45.7381 11.2619 49 15.2857 49H43.9143C47.9381 49 51.2 45.7381 51.2 41.7143C51.2 38.5587 49.1939 35.8718 46.3875 34.8591C46.3958 34.7166 46.4 34.5731 46.4 34.4286C46.4 30.4048 43.1381 27.1429 39.1143 27.1429H38Z" fill="#3258E8"/>
<path fill-rule="evenodd" clip-rule="evenodd" d="M39.1143 27.1429L38 27.1429C38 21.7778 33.702 17.4286 28.4 17.4286C25.6479 17.4286 23.1663 18.6004 21.4159 20.4779C22.4683 20.0767 23.6088 19.8572 24.8 19.8572C30.1019 19.8572 34.4 24.2064 34.4 29.5715V29.5715H35.5142C39.538 29.5715 42.8 32.8335 42.8 36.8572C42.8 37.0017 42.7957 37.1453 42.7874 37.2877C45.5939 38.3004 47.6 40.9874 47.6 44.1429C47.6 45.8659 47.0019 47.4492 46.002 48.6965C49.0084 47.7989 51.2 45.0125 51.2 41.7143C51.2 38.5588 49.1939 35.8718 46.3875 34.8591C46.3958 34.7167 46.4 34.5731 46.4 34.4286C46.4 30.4048 43.1381 27.1429 39.1143 27.1429ZM14.398 29.875C14.6597 29.7969 14.9275 29.7331 15.2006 29.6845C15.2002 29.6469 15.2 29.6092 15.2 29.5715C15.2 29.3829 15.2053 29.1955 15.2158 29.0096C14.9203 29.2753 14.6467 29.5648 14.398 29.875Z" fill="#2042BE"/>
</svg>
