<svg width="108" height="36" viewBox="0 0 108 36" fill="none" xmlns="http://www.w3.org/2000/svg">
<path d="M22 14.5V13.0413C22 12.3887 21.6816 11.7771 21.1469 11.4028L13.1469 5.80285C12.4583 5.3208 11.5417 5.3208 10.8531 5.80285L2.85308 11.4028C2.31842 11.7771 2 12.3887 2 13.0413V27.3146C2 28.9015 3.75947 29.8563 5.08998 28.9915L10.91 25.2085C11.5728 24.7777 12.4272 24.7777 13.09 25.2085L18.9606 29.0244C20.2694 29.8751 22 28.9359 22 27.375V27.375" stroke="#466BF3" stroke-width="4" stroke-linecap="round"/>
<circle cx="22" cy="21" r="3" fill="#466BF3"/>
<path d="M46.32 14.288C45.936 13.584 45.408 13.048 44.736 12.68C44.064 12.312 43.28 12.128 42.384 12.128C41.392 12.128 40.512 12.352 39.744 12.8C38.976 13.248 38.376 13.888 37.944 14.72C37.512 15.552 37.296 16.512 37.296 17.6C37.296 18.72 37.512 19.696 37.944 20.528C38.392 21.36 39.008 22 39.792 22.448C40.576 22.896 41.488 23.12 42.528 23.12C43.808 23.12 44.856 22.784 45.672 22.112C46.488 21.424 47.024 20.472 47.28 19.256H41.52V16.688H50.592V19.616C50.368 20.784 49.888 21.864 49.152 22.856C48.416 23.848 47.464 24.648 46.296 25.256C45.144 25.848 43.848 26.144 42.408 26.144C40.792 26.144 39.328 25.784 38.016 25.064C36.72 24.328 35.696 23.312 34.944 22.016C34.208 20.72 33.84 19.248 33.84 17.6C33.84 15.952 34.208 14.48 34.944 13.184C35.696 11.872 36.72 10.856 38.016 10.136C39.328 9.4 40.784 9.032 42.384 9.032C44.272 9.032 45.912 9.496 47.304 10.424C48.696 11.336 49.656 12.624 50.184 14.288H46.32ZM58.9819 26.216C57.7019 26.216 56.5499 25.936 55.5259 25.376C54.5019 24.8 53.6939 23.992 53.1019 22.952C52.5259 21.912 52.2379 20.712 52.2379 19.352C52.2379 17.992 52.5339 16.792 53.1259 15.752C53.7339 14.712 54.5579 13.912 55.5979 13.352C56.6379 12.776 57.7979 12.488 59.0779 12.488C60.3579 12.488 61.5179 12.776 62.5579 13.352C63.5979 13.912 64.4139 14.712 65.0059 15.752C65.6139 16.792 65.9179 17.992 65.9179 19.352C65.9179 20.712 65.6059 21.912 64.9819 22.952C64.3739 23.992 63.5419 24.8 62.4859 25.376C61.4459 25.936 60.2779 26.216 58.9819 26.216ZM58.9819 23.288C59.5899 23.288 60.1579 23.144 60.6859 22.856C61.2299 22.552 61.6619 22.104 61.9819 21.512C62.3019 20.92 62.4619 20.2 62.4619 19.352C62.4619 18.088 62.1259 17.12 61.4539 16.448C60.7979 15.76 59.9899 15.416 59.0299 15.416C58.0699 15.416 57.2619 15.76 56.6059 16.448C55.9659 17.12 55.6459 18.088 55.6459 19.352C55.6459 20.616 55.9579 21.592 56.5819 22.28C57.2219 22.952 58.0219 23.288 58.9819 23.288ZM74.2866 26.216C73.0066 26.216 71.8546 25.936 70.8306 25.376C69.8066 24.8 68.9986 23.992 68.4066 22.952C67.8306 21.912 67.5426 20.712 67.5426 19.352C67.5426 17.992 67.8386 16.792 68.4306 15.752C69.0386 14.712 69.8626 13.912 70.9026 13.352C71.9426 12.776 73.1026 12.488 74.3826 12.488C75.6626 12.488 76.8226 12.776 77.8626 13.352C78.9026 13.912 79.7186 14.712 80.3106 15.752C80.9186 16.792 81.2226 17.992 81.2226 19.352C81.2226 20.712 80.9106 21.912 80.2866 22.952C79.6786 23.992 78.8466 24.8 77.7906 25.376C76.7506 25.936 75.5826 26.216 74.2866 26.216ZM74.2866 23.288C74.8946 23.288 75.4626 23.144 75.9906 22.856C76.5346 22.552 76.9666 22.104 77.2866 21.512C77.6066 20.92 77.7666 20.2 77.7666 19.352C77.7666 18.088 77.4306 17.12 76.7586 16.448C76.1026 15.76 75.2946 15.416 74.3346 15.416C73.3746 15.416 72.5666 15.76 71.9106 16.448C71.2706 17.12 70.9506 18.088 70.9506 19.352C70.9506 20.616 71.2626 21.592 71.8866 22.28C72.5266 22.952 73.3266 23.288 74.2866 23.288ZM96.2393 12.704V26H92.8553V24.32C92.4233 24.896 91.8553 25.352 91.1513 25.688C90.4633 26.008 89.7113 26.168 88.8953 26.168C87.8553 26.168 86.9353 25.952 86.1353 25.52C85.3353 25.072 84.7033 24.424 84.2393 23.576C83.7913 22.712 83.5673 21.688 83.5673 20.504V12.704H86.9273V20.024C86.9273 21.08 87.1913 21.896 87.7193 22.472C88.2473 23.032 88.9673 23.312 89.8793 23.312C90.8073 23.312 91.5353 23.032 92.0633 22.472C92.5913 21.896 92.8553 21.08 92.8553 20.024V12.704H96.2393ZM103.466 15.464V21.896C103.466 22.344 103.57 22.672 103.778 22.88C104.002 23.072 104.37 23.168 104.882 23.168H106.442V26H104.33C101.498 26 100.082 24.624 100.082 21.872V15.464H98.4984V12.704H100.082V9.416H103.466V12.704H106.442V15.464H103.466Z" fill="#466BF3"/>
</svg>
